<!-- This Source Code Form is subject to the terms of the Mozilla Public
   - License, v. 2.0. If a copy of the MPL was not distributed with this
   - file, You can obtain one at http://mozilla.org/MPL/2.0/. -->
<svg version="1.1" xmlns="http://www.w3.org/2000/svg" x="0px" y="0px"
	 width="16px" height="16px" viewBox="0 0 16 16">
<g fill="context-fill">
	<path d="M15.981,7.59c-0.432,0.133-0.886,0.208-1.349,0.254v1.344h-2V7.771C9.393,7.159,6.933,4.312,6.933,0.897
		c0-0.292,0.024-0.579,0.059-0.862C3.056,0.534,0,3.896,0,7.965c0,4.411,3.589,8,8,8c4.411,0,8-3.589,8-8
		C16,7.838,15.987,7.715,15.981,7.59z M3.632,9.189h-2v-2h2V9.189z M6.632,13.189h-2v-2h2V13.189z M6.632,4.689h-2v-2h2V4.689z
		 M9.132,9.189h-2v-2h2V9.189z M12.132,13.189h-2v-2h2V13.189z"/>
	<rect y="0" class="st1" width="16" height="16"/>
</g>
</svg>
