<?xml version="1.0" encoding="utf-8"?>
<!-- Generator: Adobe Illustrator 26.1.0, SVG Export Plug-In . SVG Version: 6.00 Build 0)  -->
<svg version="1.1" id="Layer_1" xmlns="http://www.w3.org/2000/svg" xmlns:xlink="http://www.w3.org/1999/xlink" x="0px" y="0px"
	 width="16px" height="16px" viewBox="0 0 16 16" style="enable-background:new 0 0 16 16;" xml:space="preserve">
<style type="text/css">
	.st0{fill:none;stroke:#000000;stroke-width:1.5;stroke-miterlimit:10;}
	.st1{fill:none;}
	.st2{fill:none;stroke:#FFFFFF;stroke-width:1.5;stroke-miterlimit:10;}
	.st3{fill:none;stroke:#000000;stroke-width:1.5;stroke-linejoin:round;stroke-miterlimit:10;}
	.st4{fill:none;stroke:#000000;stroke-width:1.5;stroke-linecap:square;stroke-linejoin:round;stroke-miterlimit:10;}
	.st5{fill:none;stroke:#000000;stroke-width:1.5;stroke-linejoin:bevel;stroke-miterlimit:10;}
	.st6{fill:none;stroke:#000000;stroke-width:1.5;stroke-linecap:round;stroke-miterlimit:10;}
	.st7{fill:none;stroke:#FFFFFF;stroke-width:1.5;stroke-linecap:square;stroke-linejoin:round;stroke-miterlimit:10;}
	.st8{fill:none;stroke:#FFFFFF;stroke-width:1.25;stroke-miterlimit:10;}
	.st9{fill:none;stroke:#FF4F5E;stroke-width:1.5;stroke-miterlimit:10;}
	.st10{fill:#FFFFFF;}
	.st11{fill:#FFE000;}
	.st12{fill:#0A0A16;}
	.st13{fill:none;stroke:#FFFFFF;stroke-width:1.5;stroke-linejoin:round;stroke-miterlimit:10;}
	.st14{fill:none;stroke:#000000;stroke-width:1.5;stroke-linecap:square;stroke-miterlimit:10;}
</style>
<g id="Tracking_Cookies_16">
	<path d="M15.981,7.59c-0.432,0.133-0.886,0.208-1.349,0.254v1.344h-2V7.771C9.393,7.159,6.933,4.312,6.933,0.897
		c0-0.292,0.024-0.579,0.059-0.862C3.056,0.534,0,3.896,0,7.965c0,4.411,3.589,8,8,8c4.411,0,8-3.589,8-8
		C16,7.838,15.987,7.715,15.981,7.59z M3.632,9.189h-2v-2h2V9.189z M6.632,13.189h-2v-2h2V13.189z M6.632,4.689h-2v-2h2V4.689z
		 M9.132,9.189h-2v-2h2V9.189z M12.132,13.189h-2v-2h2V13.189z"/>
	<rect y="0" class="st1" width="16" height="16"/>
</g>
</svg>
