<?xml version="1.0" encoding="utf-8"?>
<!-- Generator: Adobe Illustrator 27.1.1, SVG Export Plug-In . SVG Version: 6.00 Build 0)  -->
<svg version="1.1" id="レイヤー_1" xmlns="http://www.w3.org/2000/svg" xmlns:xlink="http://www.w3.org/1999/xlink" x="0px"
	 y="0px" viewBox="0 0 160 90" style="enable-background:new 0 0 160 90;" xml:space="preserve">
<path d="M80,29c-8.8366,0-16,7.1634-16,16s7.1634,16,16,16s16-7.1634,16-16S88.8366,29,80,29z M85.2203,32.7333
	c4.461,1.9155,7.5296,6.1026,8.0128,10.9333h-4.7552c-0.2627-3.9725-1.6986-7.7777-4.1259-10.9333
	C84.352,32.7333,85.2203,32.7333,85.2203,32.7333z M80.8491,32.7333c2.8865,2.9476,4.64,6.8195,4.9515,10.9333H74.1995
	c0.3115-4.1138,2.0649-7.9857,4.9515-10.9333H80.8491z M74.7776,32.7333h0.8704c-2.4264,3.1562-3.8622,6.961-4.1259,10.9333h-4.7552
	C67.2493,38.8363,70.3172,34.6491,74.7776,32.7333z M74.7776,57.2667c-4.461-1.915-7.5292-6.1026-8.0107-10.9333h4.7552
	c0.2627,3.9725,1.6986,7.7777,4.1259,10.9333C75.648,57.2667,74.7776,57.2667,74.7776,57.2667z M79.1509,57.2667
	c-2.8865-2.9476-4.64-6.8195-4.9515-10.9333h11.5989c-0.3115,4.1138-2.065,7.9857-4.9515,10.9333
	C80.8469,57.2667,79.1509,57.2667,79.1509,57.2667z M85.2224,57.2667h-0.8725c2.4282-3.1552,3.8642-6.9606,4.1259-10.9333h4.7552
	C92.7494,51.1634,89.6823,55.3507,85.2224,57.2667z"/>
</svg>
