<svg width="16" height="16" viewBox="0 0 16 16" fill="none" xmlns="http://www.w3.org/2000/svg">
<path fill-rule="evenodd" clip-rule="evenodd" d="M5.49033 0.589672C4.70744 -0.193221 3.44257 -0.193221 2.65967 0.589672L0.589672 2.65967C-0.193221 3.44257 -0.193221 4.70744 0.589672 5.49033L10.8797 15.7803C11.0203 15.921 11.2111 16 11.41 16H15.25C15.6642 16 16 15.6642 16 15.25V11.41C16 11.2111 15.921 11.0203 15.7803 10.8797L5.49033 0.589672ZM3.72033 1.65033C3.91744 1.45323 4.23257 1.45323 4.42967 1.65033L5.78434 3.005L3.005 5.78434L1.65033 4.42967C1.45323 4.23257 1.45323 3.91744 1.65033 3.72033L3.72033 1.65033ZM4.06566 6.845L11.7207 14.5H14.5V11.7207L6.845 4.06566L4.06566 6.845Z" fill="black"/>
</svg>
