<?xml version="1.0" encoding="utf-8"?>
<!-- Generator: Adobe Illustrator 26.1.0, SVG Export Plug-In . SVG Version: 6.00 Build 0)  -->
<svg version="1.1" id="Layer_1" xmlns="http://www.w3.org/2000/svg" xmlns:xlink="http://www.w3.org/1999/xlink" x="0px" y="0px"
	 width="16px" height="16px" viewBox="0 0 16 16" style="enable-background:new 0 0 16 16;" xml:space="preserve">
<style type="text/css">
	.st0{fill:none;stroke:#000000;stroke-width:1.5;stroke-miterlimit:10;}
	.st1{fill:none;}
	.st2{fill:none;stroke:#FFFFFF;stroke-width:1.5;stroke-miterlimit:10;}
	.st3{fill:none;stroke:#000000;stroke-width:1.5;stroke-linejoin:round;stroke-miterlimit:10;}
	.st4{fill:none;stroke:#000000;stroke-width:1.5;stroke-linecap:square;stroke-linejoin:round;stroke-miterlimit:10;}
</style>
<g>
	<path d="M6,7H2C1.448,7,1,6.552,1,6V2c0-0.552,0.448-1,1-1h4c0.552,0,1,0.448,1,1v4C7,6.552,6.552,7,6,7z"/>
	<path d="M14,7h-4C9.448,7,9,6.552,9,6V2c0-0.552,0.448-1,1-1h4c0.552,0,1,0.448,1,1v4C15,6.552,14.552,7,14,7z"/>
	<path d="M6,15H2c-0.552,0-1-0.448-1-1v-4c0-0.552,0.448-1,1-1h4c0.552,0,1,0.448,1,1v4C7,14.552,6.552,15,6,15z"/>
	<path d="M14,15h-4c-0.552,0-1-0.448-1-1v-4c0-0.552,0.448-1,1-1h4c0.552,0,1,0.448,1,1v4C15,14.552,14.552,15,14,15z"/>
	<rect class="st1" width="16" height="16"/>
</g>
</svg>
