<?xml version="1.0" encoding="utf-8"?>
<!-- Generator: Adobe Illustrator 26.1.0, SVG Export Plug-In . SVG Version: 6.00 Build 0)  -->
<svg version="1.1" id="Layer_1" xmlns="http://www.w3.org/2000/svg" xmlns:xlink="http://www.w3.org/1999/xlink" x="0px" y="0px"
	 width="16px" height="16px" viewBox="0 0 16 16" style="enable-background:new 0 0 16 16;" xml:space="preserve">
<style type="text/css">
	.st0{fill:none;stroke:#000000;stroke-width:1.5;stroke-miterlimit:10;}
	.st1{fill:none;}
	.st2{fill:none;stroke:#FFFFFF;stroke-width:1.5;stroke-miterlimit:10;}
	.st3{fill:none;stroke:#000000;stroke-width:1.5;stroke-linejoin:round;stroke-miterlimit:10;}
	.st4{fill:none;stroke:#000000;stroke-width:1.5;stroke-linecap:square;stroke-linejoin:round;stroke-miterlimit:10;}
</style>
<g>
	<path d="M13.78,5.22l-4-4C9.64,1.079,9.449,1,9.25,1H4C2.895,1,2,1.895,2,3v11c0,1.105,0.895,2,2,2h8c1.105,0,2-0.895,2-2V5.75
		C14,5.551,13.921,5.36,13.78,5.22z M12.5,6.061V14c0,0.275-0.225,0.5-0.5,0.5H4c-0.275,0-0.5-0.225-0.5-0.5V3
		c0-0.275,0.225-0.5,0.5-0.5h4.939L9,2.561V5.5C9,5.776,9.224,6,9.5,6h2.939L12.5,6.061z"/>
	<rect class="st1" width="16" height="16"/>
</g>
</svg>
