<?xml version="1.0" encoding="utf-8"?>
<!-- Generator: Adobe Illustrator 25.1.0, SVG Export Plug-In . SVG Version: 6.00 Build 0)  -->
<svg version="1.1" id="Layer_1" xmlns="http://www.w3.org/2000/svg" xmlns:xlink="http://www.w3.org/1999/xlink" x="0px" y="0px"
	 viewBox="0 0 18 18" style="enable-background:new 0 0 18 18;" xml:space="preserve">
<style type="text/css">
	.st0{fill:none;}
	.st1{fill:#5EAF30;}
</style>
<path class="st0" d="M0,0h18v18H0V0z"/>
<path class="st1" d="M15.8,2.2H2.2c-0.8,0-1.5,0.7-1.5,1.5v10.5c0,0.8,0.7,1.5,1.5,1.5h13.5c0.8,0,1.5-0.7,1.5-1.5V3.8
	C17.2,2.9,16.6,2.2,15.8,2.2z M15.8,14.2H2.2V3.8h7.5v3h6V14.2z"/>
<g>
	<path class="st1" d="M4.1,13.1c0,0.3-0.3,0.6-0.6,0.6c-0.3,0-0.6-0.3-0.6-0.6c0-0.3,0.2-0.6,0.6-0.6C3.9,12.5,4.1,12.8,4.1,13.1z"
		/>
	<path class="st1" d="M7,13.4c-0.3,0.2-0.6,0.3-0.9,0.3c-0.7,0-1.1-0.4-1.1-1.2v-2H4.4V9.9H5V9l0.9-0.1v0.9h0.9l-0.1,0.6H5.9v1.9
		c0,0.4,0.1,0.5,0.4,0.5c0.1,0,0.3,0,0.4-0.1L7,13.4z"/>
	<path class="st1" d="M10.6,13.1l-0.2,0.6c-0.4,0-0.7-0.2-0.8-0.5c-0.3,0.4-0.7,0.6-1.1,0.6c-0.7,0-1.2-0.5-1.2-1.1
		c0-0.8,0.6-1.2,1.7-1.2h0.5v-0.2c0-0.5-0.2-0.6-0.7-0.6c-0.3,0-0.6,0.1-1,0.2L7.5,10C8,9.8,8.4,9.7,8.9,9.7c1,0,1.4,0.5,1.4,1.3
		v1.6C10.3,12.9,10.4,13,10.6,13.1z M9.4,12.6v-0.7H9c-0.6,0-0.9,0.2-0.9,0.6c0,0.4,0.2,0.6,0.5,0.6C9,13,9.2,12.9,9.4,12.6z"/>
	<path class="st1" d="M14.7,11.7c0,1.2-0.6,2-1.5,2c-0.4,0-0.7-0.2-1-0.5l-0.1,0.4h-0.8V8.4l0.9-0.1v2c0.2-0.3,0.6-0.5,1-0.5
		C14.2,9.7,14.7,10.5,14.7,11.7z M13.7,11.7c0-1-0.3-1.3-0.7-1.3c-0.3,0-0.6,0.2-0.7,0.5v1.6c0.2,0.3,0.4,0.4,0.7,0.4
		C13.4,13,13.7,12.6,13.7,11.7z"/>
</g>
</svg>
